<svg width="24" height="24" viewBox="0 0 24 24" fill="none" xmlns="http://www.w3.org/2000/svg">
<path fill-rule="evenodd" clip-rule="evenodd" d="M11.328 0.355172C11.5074 0.179275 11.7487 0.0807495 12 0.0807495C12.2512 0.0807495 12.4925 0.179275 12.672 0.355172L23.472 10.9792C23.6436 11.1595 23.7385 11.3994 23.7366 11.6484C23.7348 11.8973 23.6362 12.1358 23.4619 12.3135C23.2875 12.4912 23.0509 12.5942 22.802 12.6008C22.5532 12.6074 22.3115 12.517 22.128 12.3488L20.8 11.0432V20C20.8 20.2121 20.7157 20.4156 20.5657 20.5657C20.4156 20.7157 20.2121 20.8 20 20.8H3.99997C3.78779 20.8 3.58431 20.7157 3.43428 20.5657C3.28425 20.4156 3.19997 20.2121 3.19997 20V11.0432L1.87197 12.3488C1.78315 12.4421 1.67646 12.5165 1.55825 12.5677C1.44005 12.6189 1.31275 12.6458 1.18394 12.6468C1.05513 12.6478 0.927435 12.6228 0.808471 12.5734C0.689506 12.524 0.581702 12.4512 0.491479 12.3592C0.401256 12.2673 0.330459 12.1581 0.283305 12.0382C0.236151 11.9184 0.213606 11.7902 0.21701 11.6615C0.220415 11.5327 0.249701 11.4059 0.303123 11.2887C0.356545 11.1715 0.433011 11.0662 0.527967 10.9792L11.328 0.355172ZM12 2.38717L19.2 9.46877V19.2H16V13.6C16 13.3878 15.9157 13.1843 15.7657 13.0343C15.6156 12.8843 15.4121 12.8 15.2 12.8H10.4C10.1878 12.8 9.98431 12.8843 9.83428 13.0343C9.68425 13.1843 9.59997 13.3878 9.59997 13.6V19.2H4.79997V9.46877L12 2.38717ZM11.2 19.2H14.4V14.4H11.2V19.2Z" fill="#727272"/>
</svg>
