<svg width="32" height="32" viewBox="0 0 32 32" fill="none" xmlns="http://www.w3.org/2000/svg">
<path d="M21.3333 18H22.3333C22.3333 17.7348 22.2279 17.4804 22.0404 17.2929C21.8529 17.1053 21.5985 17 21.3333 17V18ZM21.3333 14V15C21.5985 15 21.8529 14.8946 22.0404 14.7071C22.2279 14.5195 22.3333 14.2652 22.3333 14H21.3333ZM10.6666 18V17C10.4014 17 10.1471 17.1053 9.95952 17.2929C9.77198 17.4804 9.66663 17.7348 9.66663 18H10.6666ZM10.6666 14H9.66663C9.66663 14.552 10.1146 15 10.6666 15V14ZM28.3333 13.3333V18.6666H30.3333V13.3333H28.3333ZM25.3333 21.6666C24.6986 21.6666 24.272 21.6666 23.9426 21.644C23.6213 21.6213 23.4653 21.5826 23.3626 21.54L22.5973 23.388C22.984 23.548 23.384 23.6106 23.8066 23.6386C24.22 23.6666 24.7266 23.6666 25.3333 23.6666V21.6666ZM20.3333 18C20.3333 18.6146 20.3333 19.272 20.36 19.84C20.3733 20.124 20.3946 20.4013 20.428 20.652C20.46 20.8866 20.512 21.1613 20.612 21.4026L22.46 20.6373L22.444 20.5773C22.43 20.5124 22.4184 20.4471 22.4093 20.3813C22.3835 20.1701 22.3662 19.9579 22.3573 19.7453C22.3366 19.1638 22.3286 18.5819 22.3333 18H20.3333ZM23.3626 21.54C23.1602 21.4562 22.9763 21.3334 22.8214 21.1785C22.6666 21.0236 22.5437 20.8397 22.46 20.6373L20.612 21.4026C20.7962 21.8478 21.0664 22.2522 21.4071 22.5929C21.7477 22.9335 22.1522 23.2037 22.5973 23.388L23.3626 21.54ZM28.3333 18.6666C28.3333 19.3013 28.3333 19.728 28.3106 20.0573C28.288 20.3786 28.2493 20.5346 28.2066 20.6373L30.0546 21.4026C30.2146 21.016 30.2773 20.616 30.3053 20.1933C30.3333 19.78 30.3333 19.2733 30.3333 18.6666H28.3333ZM25.3333 23.6666C25.9413 23.6666 26.4466 23.6666 26.86 23.64C27.2826 23.6106 27.6826 23.548 28.0693 23.3866L27.304 21.54C27.2013 21.5826 27.0453 21.6213 26.724 21.644C26.3946 21.6666 25.968 21.6666 25.3333 21.6666V23.6666ZM28.2066 20.6373C28.1229 20.8397 28 21.0236 27.8451 21.1785C27.6903 21.3334 27.5064 21.4562 27.304 21.54L28.0693 23.3866C28.5144 23.2024 28.9189 22.9335 29.2595 22.5929C29.6002 22.2522 29.8704 21.8478 30.0546 21.4026L28.2066 20.6373ZM25.3333 10.3333C25.968 10.3333 26.3946 10.3333 26.724 10.356C27.0453 10.3786 27.2013 10.4173 27.304 10.46L28.0693 8.61198C27.6826 8.45198 27.2826 8.38931 26.86 8.36131C26.4466 8.33331 25.94 8.33331 25.3333 8.33331V10.3333ZM30.3333 13.3333C30.3333 12.7253 30.3333 12.22 30.3066 11.8066C30.2899 11.3923 30.2057 10.9836 30.0546 10.5973L28.2066 11.3626C28.2493 11.4653 28.288 11.6213 28.3106 11.9426C28.3333 12.272 28.3333 12.6986 28.3333 13.3333H30.3333ZM27.304 10.46C27.7133 10.6293 28.0373 10.9533 28.2066 11.3626L30.0546 10.5973C29.8704 10.1522 29.6002 9.74774 29.2595 9.40709C28.9189 9.06644 28.5144 8.79625 28.0693 8.61198L27.304 10.46ZM25.3333 8.33331C24.7253 8.33331 24.22 8.33331 23.8066 8.35998C23.3922 8.37667 22.9835 8.46095 22.5973 8.61198L23.3626 10.46C23.4653 10.4173 23.6213 10.3786 23.9426 10.356C24.272 10.3333 24.6986 10.3333 25.3333 10.3333V8.33331ZM22.3333 14C22.3333 13.3733 22.3333 12.7653 22.3573 12.2546C22.3697 12.0004 22.3875 11.7884 22.4106 11.6186C22.4213 11.536 22.4324 11.4706 22.444 11.4226L22.46 11.3626L20.612 10.5973C20.5192 10.8388 20.4574 11.091 20.428 11.348C20.3934 11.618 20.3708 11.8893 20.36 12.1613C20.3333 12.728 20.3333 13.3853 20.3333 14H22.3333ZM22.5973 8.61198C22.1523 8.7961 21.7479 9.06741 21.4073 9.40783C21.0666 9.74825 20.7964 10.1524 20.612 10.5973L22.46 11.3626C22.6293 10.9533 22.9533 10.6293 23.3626 10.46L22.5973 8.61198ZM3.66663 18.6666V13.3333H1.66663V18.6666H3.66663ZM6.66663 21.6666C6.03196 21.6666 5.60529 21.6666 5.27596 21.644C4.95463 21.6213 4.79863 21.5826 4.69596 21.54L3.93063 23.388C4.31729 23.548 4.71729 23.6106 5.13996 23.6386C5.55329 23.6666 6.05996 23.6666 6.66663 23.6666V21.6666ZM1.66663 18.6666C1.66663 19.2746 1.66663 19.78 1.69329 20.1933C1.72263 20.6173 1.78663 21.016 1.94663 21.4026L3.79329 20.6373C3.75063 20.5346 3.71196 20.3786 3.68929 20.0573C3.66751 19.5941 3.65995 19.1303 3.66663 18.6666H1.66663ZM4.69596 21.54C4.49356 21.4562 4.30966 21.3334 4.15478 21.1785C3.99989 21.0236 3.87705 20.8397 3.79329 20.6373L1.94529 21.4026C2.12957 21.8478 2.39975 22.2522 2.7404 22.5929C3.08106 22.9335 3.4855 23.2037 3.93063 23.388L4.69596 21.54ZM9.66663 18C9.66663 18.6266 9.66663 19.2346 9.64263 19.7453C9.63018 19.9995 9.6124 20.2115 9.58929 20.3813C9.58062 20.447 9.5695 20.5124 9.55596 20.5773L9.53996 20.6373L11.388 21.4026C11.488 21.1613 11.54 20.8866 11.572 20.652C11.6053 20.4013 11.6266 20.124 11.64 19.8386C11.6666 19.272 11.6666 18.6146 11.6666 18H9.66663ZM6.66663 23.6666C7.27463 23.6666 7.77996 23.6666 8.19329 23.64C8.61596 23.6106 9.01596 23.5493 9.40263 23.388L8.63729 21.54C8.53463 21.5826 8.37863 21.6213 8.05729 21.644C7.59408 21.6658 7.1303 21.6733 6.66663 21.6666V23.6666ZM9.53996 20.6373C9.4562 20.8397 9.33336 21.0236 9.17847 21.1785C9.02359 21.3334 8.83969 21.4562 8.63729 21.54L9.40263 23.388C9.84775 23.2037 10.2522 22.9335 10.5928 22.5929C10.9335 22.2522 11.2037 21.8478 11.388 21.4026L9.53996 20.6373ZM6.66663 10.3333C7.30129 10.3333 7.72796 10.3333 8.05729 10.356C8.37863 10.3786 8.53463 10.4173 8.63729 10.46L9.40263 8.61198C9.01596 8.45198 8.61596 8.38931 8.19329 8.36131C7.77996 8.33331 7.27329 8.33331 6.66663 8.33331V10.3333ZM11.6666 14C11.6666 13.3853 11.6666 12.728 11.64 12.16C11.6291 11.8885 11.6064 11.6175 11.572 11.348C11.5425 11.091 11.4807 10.8388 11.388 10.5973L9.53996 11.3626L9.55596 11.4226C9.56663 11.4698 9.57818 11.5351 9.59063 11.6186C9.61641 11.8299 9.63376 12.042 9.64263 12.2546C9.66663 12.7653 9.66663 13.372 9.66663 14H11.6666ZM8.63729 10.46C9.04663 10.6293 9.37063 10.9533 9.53996 11.3626L11.388 10.5973C11.2037 10.1522 10.9335 9.74774 10.5928 9.40709C10.2522 9.06644 9.84775 8.79625 9.40263 8.61198L8.63729 10.46ZM6.66663 8.33331C6.05863 8.33331 5.55329 8.33331 5.13996 8.35998C4.72558 8.37667 4.31687 8.46095 3.93063 8.61198L4.69596 10.46C4.79863 10.4173 4.95463 10.3786 5.27596 10.356C5.73917 10.3342 6.20295 10.3266 6.66663 10.3333V8.33331ZM3.66663 13.3333C3.66663 12.6986 3.66663 12.272 3.68929 11.9426C3.71196 11.6213 3.75063 11.4653 3.79329 11.3626L1.94663 10.5973C1.78663 10.984 1.72396 11.384 1.69596 11.8066C1.66796 12.22 1.66796 12.7266 1.66796 13.3333H3.66663ZM3.93063 8.61198C3.48563 8.7961 3.08125 9.06741 2.74061 9.40783C2.39996 9.74825 2.12971 10.1524 1.94529 10.5973L3.79329 11.3626C3.96263 10.9533 4.28663 10.6293 4.69596 10.46L3.93063 8.61198ZM10.6666 15H21.3333V13H10.6666V15ZM21.3333 17H10.6666V19H21.3333V17Z" fill="#727272"/>
</svg>
